<svg xmlns="http://www.w3.org/2000/svg" fill="none" viewBox="15.56 6.92 51.88 69.17">
<path d="M63.9791 6.91663H19.0208C17.1101 6.91663 15.5625 8.46423 15.5625 10.375V72.6249C15.5625 74.5357 17.1101 76.0833 19.0208 76.0833H63.9791C65.8899 76.0833 67.4375 74.5357 67.4375 72.6249V10.375C67.4375 8.46423 65.8899 6.91663 63.9791 6.91663Z" fill="url(#paint0_linear_17_63)"/>
<path d="M58.7916 25.9374H24.2083C23.2538 25.9374 22.4791 25.1627 22.4791 24.2082V15.5624C22.4791 14.6079 23.2538 13.8333 24.2083 13.8333H58.7916C59.7461 13.8333 60.5208 14.6079 60.5208 15.5624V24.2082C60.5208 25.1627 59.7461 25.9374 58.7916 25.9374Z" fill="url(#paint1_linear_17_63)"/>
<path d="M44.9583 41.5H38.0417C37.0872 41.5 36.3125 40.7253 36.3125 39.7708V32.8542C36.3125 31.8997 37.0872 31.125 38.0417 31.125H44.9583C45.9128 31.125 46.6875 31.8997 46.6875 32.8542V39.7708C46.6875 40.7253 45.9128 41.5 44.9583 41.5Z" fill="black"/>
<path d="M31.125 41.5H24.2083C23.2538 41.5 22.4791 40.7253 22.4791 39.7708V32.8542C22.4791 31.8997 23.2538 31.125 24.2083 31.125H31.125C32.0795 31.125 32.8541 31.8997 32.8541 32.8542V39.7708C32.8541 40.7253 32.0795 41.5 31.125 41.5Z" fill="black"/>
<path d="M44.9583 55.3332H38.0417C37.0872 55.3332 36.3125 54.5586 36.3125 53.6041V46.6874C36.3125 45.7329 37.0872 44.9583 38.0417 44.9583H44.9583C45.9128 44.9583 46.6875 45.7329 46.6875 46.6874V53.6041C46.6875 54.5586 45.9128 55.3332 44.9583 55.3332Z" fill="black"/>
<path d="M31.125 55.3332H24.2083C23.2538 55.3332 22.4791 54.5586 22.4791 53.6041V46.6874C22.4791 45.7329 23.2538 44.9583 24.2083 44.9583H31.125C32.0795 44.9583 32.8541 45.7329 32.8541 46.6874V53.6041C32.8541 54.5586 32.0795 55.3332 31.125 55.3332Z" fill="black"/>
<path d="M44.9583 69.1666H38.0417C37.0872 69.1666 36.3125 68.392 36.3125 67.4375V60.5208C36.3125 59.5663 37.0872 58.7916 38.0417 58.7916H44.9583C45.9128 58.7916 46.6875 59.5663 46.6875 60.5208V67.4375C46.6875 68.392 45.9128 69.1666 44.9583 69.1666Z" fill="black"/>
<path d="M31.125 69.1666H24.2083C23.2538 69.1666 22.4791 68.392 22.4791 67.4375V60.5208C22.4791 59.5663 23.2538 58.7916 24.2083 58.7916H31.125C32.0795 58.7916 32.8541 59.5663 32.8541 60.5208V67.4375C32.8541 68.392 32.0795 69.1666 31.125 69.1666Z" fill="black"/>
<path d="M58.7916 41.5H51.8749C50.9204 41.5 50.1458 40.7253 50.1458 39.7708V32.8542C50.1458 31.8997 50.9204 31.125 51.8749 31.125H58.7916C59.7461 31.125 60.5207 31.8997 60.5207 32.8542V39.7708C60.5207 40.7253 59.7461 41.5 58.7916 41.5Z" fill="black"/>
<path d="M58.7916 69.1666H51.8749C50.9204 69.1666 50.1458 68.3919 50.1458 67.4374V46.6874C50.1458 45.7329 50.9204 44.9583 51.8749 44.9583H58.7916C59.7461 44.9583 60.5207 45.7329 60.5207 46.6874V67.4374C60.5207 68.3919 59.7461 69.1666 58.7916 69.1666Z" fill="url(#paint2_linear_17_63)"/>
<defs>
<linearGradient id="paint0_linear_17_63" x1="17.6081" y1="8.43656" x2="63.7319" y2="72.2653" gradientUnits="userSpaceOnUse">
<stop stop-color="#491E6F"/>
<stop offset="1" stop-color="#A452EB"/>
</linearGradient>
<linearGradient id="paint1_linear_17_63" x1="26.5115" y1="12.9427" x2="59.7202" y2="28.3254" gradientUnits="userSpaceOnUse">
<stop stop-color="#4FE5FF"/>
<stop offset="1" stop-color="#22136E"/>
</linearGradient>
<linearGradient id="paint2_linear_17_63" x1="55.3332" y1="45.911" x2="55.3332" y2="68.5493" gradientUnits="userSpaceOnUse">
<stop stop-color="#0C3E79"/>
<stop offset="1" stop-color="#0F417A"/>
</linearGradient>
</defs>
</svg>