<svg width="260" height="410" viewBox="0 0 260 410" fill="none" xmlns="http://www.w3.org/2000/svg">
<path d="M0 119.996V114.496C0 89.916 19.92 69.996 44.5 69.996H49.5H215.5C240.08 69.996 260 89.916 260 114.496V169.996H0V119.996Z" fill="#A452EB"/>
<path d="M220 339.996H260V169.996H0V339.996H40H220Z" fill="#491E6F"/>
<path d="M235.5 13.826V26.166C235.5 33.806 229.31 39.996 221.67 39.996H215.5H45H38.83C31.19 39.996 25 33.806 25 26.166V13.826C25 6.18597 31.19 -0.00402832 38.83 -0.00402832H221.67C229.31 -0.00402832 235.5 6.18597 235.5 13.826Z" fill="#414A56"/>
<path d="M215.5 39.996V69.996H211H45V39.996H215.5Z" fill="#22136E"/>
<path d="M142.56 245.5H171.5C95 329.491 100.68 323.521 95 329.491C99.11 320.591 120.32 274.641 124.67 265.221H95.0001L159.281 196L142.56 245.5Z" fill="#1BA2E5"/>
<path d="M220 119.996C220 114.473 215.522 109.996 210 109.996H0.225998C0.0769979 111.476 0 112.977 0 114.496V119.996V129.996H210C215.522 129.996 220 125.519 220 119.996Z" fill="#D0A6F5"/>
<path d="M40 349.996C34.477 349.996 30 345.518 30 339.996V219.996C30 214.474 34.477 209.996 40 209.996C45.523 209.996 50 214.474 50 219.996V339.996C50 345.519 45.523 349.996 40 349.996Z" fill="#D0A6F5"/>
<path d="M220 349.996C214.478 349.996 210 345.518 210 339.996V219.996C210 214.474 214.478 209.996 220 209.996C225.522 209.996 230 214.474 230 219.996V339.996C230 345.519 225.522 349.996 220 349.996Z" fill="#D0A6F5"/>
<path d="M260 339.996V366.996C260 389.736 242.35 408.336 220 409.876C216.75 410.106 228.56 409.946 43 409.996C19.25 409.996 0 390.746 0 366.996V339.996H40H97.41H220H260Z" fill="#A452EB"/>
<path d="M12.7907 92.3474C15.5842 87.6019 18.1428 85.1548 22.145 84.012" stroke="white" stroke-width="7" stroke-linecap="round"/>
</svg>
