<svg xmlns="http://www.w3.org/2000/svg" fill="none" viewBox="2.09 2.09 62.81 62.81">
<path d="M57.5781 10.4688H49.1479C45.6602 5.23655 39.7881 2.09375 33.5 2.09375C27.2119 2.09375 21.3398 5.23655 17.8521 10.4688H9.42188C5.37662 10.4735 2.09847 13.7516 2.09375 17.7969V57.5781C2.09864 61.6233 5.37669 64.9014 9.42188 64.9062H57.5781C61.6233 64.9014 64.9014 61.6233 64.9062 57.5781V17.7969C64.9015 13.7516 61.6234 10.4735 57.5781 10.4688Z" fill="#A452EB"/>
<path d="M33.5 35.5938C41.5944 35.5938 48.1562 29.0319 48.1562 20.9375C48.1562 12.8431 41.5944 6.28125 33.5 6.28125C25.4056 6.28125 18.8438 12.8431 18.8438 20.9375C18.8438 29.0319 25.4056 35.5938 33.5 35.5938Z" fill="#8F7FE2"/>
<path d="M33.5 35.5938C41.5944 35.5938 48.1562 29.0319 48.1562 20.9375C48.1562 12.8431 41.5944 6.28125 33.5 6.28125C25.4056 6.28125 18.8438 12.8431 18.8438 20.9375C18.8438 29.0319 25.4056 35.5938 33.5 35.5938Z" fill="#8F7FE2"/>
<path d="M33.5 35.5938C41.5944 35.5938 48.1562 29.0319 48.1562 20.9375C48.1562 12.8431 41.5944 6.28125 33.5 6.28125C25.4056 6.28125 18.8438 12.8431 18.8438 20.9375C18.8438 29.0319 25.4056 35.5938 33.5 35.5938Z" fill="#8F7FE2"/>
<path d="M31.4062 49.876C31.387 44.1961 28.5055 38.9086 23.7428 35.8137C18.7227 32.5308 15.6989 26.9357 15.7031 20.9375C15.7019 19.1641 15.963 17.4002 16.4778 15.7031H9.42188C8.26693 15.7065 7.33151 16.6419 7.32812 17.7969V57.5781C7.33151 58.7331 8.26693 59.6685 9.42188 59.6719H31.4062V49.876Z" fill="#D0A6F5"/>
<path d="M57.5781 15.7031H50.5222C51.037 17.4002 51.2981 19.1641 51.2969 20.9375C51.3011 26.9357 48.2773 32.5308 43.2572 35.8137C38.4944 38.9089 35.613 44.1966 35.5938 49.8767V59.6719H57.5781C58.7331 59.6685 59.6685 58.7331 59.6719 57.5781V17.7969C59.6685 16.6419 58.7331 15.7065 57.5781 15.7031Z" fill="#D0A6F5"/>
<path d="M33.5 19.8906C33.2223 19.8907 32.956 19.7804 32.7597 19.5841C32.5633 19.3877 32.4531 19.1214 32.4531 18.8438V14.6562C32.4531 14.0781 32.9218 13.6094 33.5 13.6094C34.0782 13.6094 34.5469 14.0781 34.5469 14.6562V18.8438C34.5469 19.1214 34.4367 19.3877 34.2403 19.5841C34.044 19.7804 33.7777 19.8907 33.5 19.8906Z" fill="#A452EB"/>
<path d="M33.5 24.0781C35.2345 24.0781 36.6406 22.672 36.6406 20.9375C36.6406 19.203 35.2345 17.7969 33.5 17.7969C31.7655 17.7969 30.3594 19.203 30.3594 20.9375C30.3594 22.672 31.7655 24.0781 33.5 24.0781Z" fill="black"/>
<path d="M23.0312 21.9844H21.9844C21.4062 21.9844 20.9375 21.5157 20.9375 20.9375C20.9375 20.3593 21.4062 19.8906 21.9844 19.8906H23.0312C23.6094 19.8906 24.0781 20.3593 24.0781 20.9375C24.0781 21.5157 23.6094 21.9844 23.0312 21.9844Z" fill="#22136E"/>
<path d="M45.0156 21.9844H43.9688C43.3906 21.9844 42.9219 21.5157 42.9219 20.9375C42.9219 20.3593 43.3906 19.8906 43.9688 19.8906H45.0156C45.5938 19.8906 46.0625 20.3593 46.0625 20.9375C46.0625 21.5157 45.5938 21.9844 45.0156 21.9844Z" fill="#22136E"/>
<path d="M24.9572 27.0784L24.0506 27.6019C23.5499 27.891 22.9096 27.7194 22.6205 27.2187C22.3314 26.718 22.503 26.0777 23.0037 25.7886L23.9103 25.2652C24.411 24.9761 25.0513 25.1477 25.3404 25.6484C25.6295 26.1491 25.4579 26.7894 24.9572 27.0784Z" fill="#22136E"/>
<path d="M43.9962 16.0862L43.0897 16.6097C42.5889 16.8988 41.9487 16.7272 41.6596 16.2265C41.3705 15.7258 41.5421 15.0855 42.0428 14.7964L42.9494 14.273C43.4501 13.9839 44.0904 14.1555 44.3794 14.6562C44.6685 15.1569 44.497 15.7972 43.9962 16.0862Z" fill="#22136E"/>
<path d="M29.1722 30.5272L28.6487 31.4338C28.3597 31.9345 27.7194 32.106 27.2187 31.8169C26.718 31.5279 26.5464 30.8876 26.8355 30.3869L27.3589 29.4803C27.648 28.9796 28.2883 28.808 28.789 29.0971C29.2897 29.3862 29.4613 30.0264 29.1722 30.5272Z" fill="#22136E"/>
<path d="M40.1644 11.4881L39.6409 12.3947C39.3519 12.8954 38.7116 13.067 38.2109 12.7779C37.7102 12.4888 37.5386 11.8485 37.8277 11.3478L38.3511 10.4412C38.6402 9.9405 39.2805 9.76895 39.7812 10.058C40.2819 10.3471 40.4535 10.9874 40.1644 11.4881Z" fill="#22136E"/>
<path d="M34.5469 31.4062V32.4531C34.5469 33.0313 34.0782 33.5 33.5 33.5C32.9218 33.5 32.4531 33.0313 32.4531 32.4531V31.4062C32.4531 30.8281 32.9218 30.3594 33.5 30.3594C34.0782 30.3594 34.5469 30.8281 34.5469 31.4062Z" fill="#22136E"/>
<path d="M34.5469 9.42188V10.4688C34.5469 11.0469 34.0782 11.5156 33.5 11.5156C32.9218 11.5156 32.4531 11.0469 32.4531 10.4688V9.42188C32.4531 8.84371 32.9218 8.375 33.5 8.375C34.0782 8.375 34.5469 8.84371 34.5469 9.42188Z" fill="#22136E"/>
<path d="M39.6409 29.4803L40.1644 30.3869C40.4535 30.8876 40.2819 31.5279 39.7812 31.8169C39.2805 32.106 38.6402 31.9345 38.3511 31.4338L37.8277 30.5272C37.5386 30.0264 37.7102 29.3862 38.2109 29.0971C38.7116 28.808 39.3519 28.9796 39.6409 29.4803Z" fill="#22136E"/>
<path d="M28.6487 10.4412L29.1722 11.3478C29.4613 11.8485 29.2897 12.4888 28.789 12.7779C28.2883 13.067 27.648 12.8954 27.3589 12.3947L26.8355 11.4881C26.5464 10.9874 26.718 10.3471 27.2187 10.058C27.7194 9.76895 28.3597 9.9405 28.6487 10.4412Z" fill="#22136E"/>
<path d="M43.0897 25.2653L43.9962 25.7887C44.497 26.0778 44.6685 26.7181 44.3794 27.2188C44.0904 27.7195 43.4501 27.8911 42.9494 27.602L42.0428 27.0786C41.5421 26.7895 41.3705 26.1492 41.6596 25.6485C41.9487 25.1478 42.5889 24.9762 43.0897 25.2653Z" fill="#22136E"/>
<path d="M24.0506 14.2731L24.9572 14.7966C25.4579 15.0856 25.6295 15.7259 25.3404 16.2266C25.0513 16.7273 24.411 16.8989 23.9103 16.6098L23.0037 16.0864C22.503 15.7973 22.3314 15.157 22.6205 14.6563C22.9096 14.1556 23.5499 13.984 24.0506 14.2731Z" fill="#22136E"/>
</svg>